# xmcd
# 
# Track frame offsets:
#     150
#     16260
#     38280
#     60360
#     80090
#     106880
#     127855
#     143897
#     165872
#     187812
#     207435
#     234167
# 
# Disc length: 3398
# 
# Revision: 2
# Processed by: cddbd v1.5.2PL0 Copyright (c) Steve Scherf et al.
# Submitted via: fre:ac v1.1beta1pre4
# 
DISCID=830d440c
DTITLE=下級生 - （エルフ版） 下級生 好きといえたら…
DYEAR=1997
DGENRE=Anime
TTITLE0=柳沢みわ/WONDER LAND
TTITLE1=Pure/MAPS
TTITLE2=そのざきみえ/Tonight
TTITLE3=茶山莉子/"好き"と言えたら・・・
TTITLE4=三五美奈子/こんな大きな樹の下で
TTITLE5=安達まり/トキメキの行方
TTITLE6=WONDER LAND(カラオケ)
TTITLE7=MAPS(カラオケ)
TTITLE8=Tonight(カラオケ)
TTITLE9="好き"と言えたら・・(カラオケ)
TTITLE10=こんな大きな樹の下で(カラオケ)
TTITLE11=トキメキの行方(カラオケ)
EXTD=
EXTT0=
EXTT1=
EXTT2=
EXTT3=
EXTT4=
EXTT5=
EXTT6=
EXTT7=
EXTT8=
EXTT9=
EXTT10=
EXTT11=
PLAYORDER=
